<svg xmlns="http://www.w3.org/2000/svg" viewBox="0 0 256 256">
  <rect data-role="background" x="8" y="8" width="240" height="240" rx="46" fill="#172536" stroke="#d8c28f" stroke-width="7"/>
  <g data-role="wand" fill="none" stroke-linecap="round">
    <path d="M42 54 103 99" stroke="#352417" stroke-width="18"/>
    <path d="M44 55 104 99" stroke="#c68e50" stroke-width="10"/>
  </g>
  <path data-role="star" d="m201 31 6 15 15 6-15 6-6 15-6-15-15-6 15-6z" fill="#f4c15d"/>
  <g data-role="cauldron" stroke-linecap="round" stroke-linejoin="round">
    <path d="M46 143h164c-4 62-31 88-82 88s-78-26-82-88z" fill="#293847" stroke="#e3e9ef" stroke-width="9"/>
    <ellipse cx="128" cy="143" rx="82" ry="24" fill="#111c28" stroke="#e3e9ef" stroke-width="9"/>
    <ellipse data-role="potion" cx="128" cy="143" rx="65" ry="15" fill="#4fc98a" stroke="none"/>
    <path d="M49 163H30M207 163h19M78 218l-12 22M178 218l12 22" fill="none" stroke="#e3e9ef" stroke-width="9"/>
    <circle cx="105" cy="143" r="6" fill="#c9f2de" stroke="none"/>
    <circle cx="151" cy="137" r="8" fill="#c9f2de" stroke="none"/>
  </g>
</svg>